<svg xmlns="http://www.w3.org/2000/svg" viewBox="0 0 82.25 26"><defs><style>.cls-1{fill:#fff;}.cls-2{fill:#dbfe01;}</style></defs><title>eCommerce</title><g id="Capa_2" data-name="Capa 2"><g id="Capa_1-2" data-name="Capa 1"><path class="cls-1" d="M36.4,15.05h-5a0,0,0,0,1,0,0V10.89a0,0,0,0,0,0,0H29.21a0,0,0,0,0,0,0V21.22a0,0,0,0,0,0,0h2.08a0,0,0,0,0,0,0V17s0,0,0,0h5s0,0,0,0v4.25a0,0,0,0,0,0,0h2.08a0,0,0,0,0,0,0V10.89a0,0,0,0,0,0,0H36.46a0,0,0,0,0,0,0V15S36.43,15.05,36.4,15.05Z"/><path class="cls-1" d="M55.6,12.72h3a0,0,0,0,1,0,0v8.43s0,0,0,0h2.08s0,0,0,0v-8.4a0,0,0,0,1,0,0h3s0,0,0,0V11s0,0,0,0H55.6a0,0,0,0,0,0,0v1.76Z"/><path class="cls-1" d="M64.8,21.28h2a0,0,0,0,0,0,0V13.71s0,0,0,0h-2s0,0,0,0v7.51Z"/><path class="cls-2" d="M65.86,10.45a1.25,1.25,0,1,0,1.25,1.24A1.25,1.25,0,0,0,65.86,10.45Z"/><path class="cls-1" d="M79.82,16.61l-.6-.16c-.74-.16-1-.38-1-.67s.38-.51,1-.51a3.81,3.81,0,0,1,1.82.48h0l1-1.28v0a5.46,5.46,0,0,0-3-.89c-1.82,0-3,1-3,2.55,0,1.34,1.09,1.82,2.21,2.08l.61.16c.83.22,1.18.48,1.18.73s-.38.58-1,.61a3.92,3.92,0,0,1-2.3-.73h0l-1,1.27v0a5.43,5.43,0,0,0,3.33,1.08c1.91,0,3.19-1,3.19-2.43S80.85,16.87,79.82,16.61Z"/><path class="cls-1" d="M51.51,18.34l-1.88-4.83s0,0,0,0H47.33s0,0,0,0l3.17,7.42s0,.09,0,.16a2,2,0,0,1-.67,1,2.07,2.07,0,0,1-1.22.32h-1a0,0,0,0,0,0,0v1.92a0,0,0,0,0,0,0h1.34a3.51,3.51,0,0,0,2.24-.74,5.29,5.29,0,0,0,1.63-2.42l2.84-7.77s0,0,0,0H53.3s0,0,0,0l-1.6,4.83C51.54,18.37,51.51,18.37,51.51,18.34Z"/><path class="cls-1" d="M43.52,13.48a3.67,3.67,0,0,0-3.8,3.68,4,4,0,0,0,3.9,4.18,3.88,3.88,0,0,0,3.32-1.63v0l-1.66-.77h0a2.06,2.06,0,0,1-1.6.74,1.48,1.48,0,0,1-1.6-1.34.08.08,0,0,1,.07-.07h5.17s0,0,0,0a8.87,8.87,0,0,0,.06-.89A3.67,3.67,0,0,0,43.52,13.48ZM42,16.71a1.54,1.54,0,0,1,1.56-1.5c.9,0,1.41.51,1.6,1.5Z"/><path class="cls-1" d="M72.28,19.52a1.9,1.9,0,0,1-2-2.08,1.86,1.86,0,0,1,1.92-2.07,1.91,1.91,0,0,1,1.34.51l.07.06h0l1.18-1.4v-.07l-.06-.06a4.21,4.21,0,0,0-2.66-.9,3.82,3.82,0,0,0-4.09,3.93,3.81,3.81,0,0,0,4.06,4,4.07,4.07,0,0,0,2.94-1.09v-.06L73.78,19h0A2.16,2.16,0,0,1,72.28,19.52Z"/><path class="cls-2" d="M11.63,14.69V14c0-.08-.07-.16-.15-.15l-.7,0a.13.13,0,0,0-.13.13l0,.84h.84A.13.13,0,0,0,11.63,14.69Z"/><path class="cls-2" d="M6.49,16.09l-.7,0a.13.13,0,0,0-.13.13l0,.84h.84a.13.13,0,0,0,.13-.14l0-.69A.15.15,0,0,0,6.49,16.09Z"/><path class="cls-2" d="M9.51,17.34l-.76,0a.14.14,0,0,0-.14.14v.92l.92,0a.15.15,0,0,0,.15-.14l0-.76A.19.19,0,0,0,9.51,17.34Z"/><path class="cls-2" d="M12.49,18.28l-.76,0a.14.14,0,0,0-.14.15l0,.91h.91a.15.15,0,0,0,.15-.15l0-.75C12.63,18.36,12.56,18.28,12.49,18.28Z"/><path class="cls-2" d="M12.13,17.19l0-.7a.15.15,0,0,0-.15-.15l-.69,0a.13.13,0,0,0-.13.13v.85l.85,0A.13.13,0,0,0,12.13,17.19Z"/><path class="cls-2" d="M13.28,15l-.7,0a.13.13,0,0,0-.13.13v.84h.85a.13.13,0,0,0,.13-.14l0-.69A.15.15,0,0,0,13.28,15Z"/><path class="cls-2" d="M17.9,10.86H16a.37.37,0,0,0-.38.39V13.1a.34.34,0,0,0,.35.35h2.24V11.21A.34.34,0,0,0,17.9,10.86Z"/><path class="cls-2" d="M25.76,18.69h-.93a1.26,1.26,0,0,1-1.28-1.28V16.17a.07.07,0,0,1,.07-.07h2.17a.49.49,0,0,0,.26-.41V13.83a.34.34,0,0,0-.36-.35H23.55a.06.06,0,0,1-.06-.06V11.25a.34.34,0,0,0-.35-.36H21.28a.34.34,0,0,0-.35.36v2.17a.06.06,0,0,1-.06.06H18.34v2.59h2.53a.06.06,0,0,1,.06.06v1.22a3.9,3.9,0,0,0,3.9,3.9h.93a.34.34,0,0,0,.35-.35V19A.34.34,0,0,0,25.76,18.69Z"/><path class="cls-2" d="M15.66,16.42v1.86a.39.39,0,0,0,.38.38H17.9a.34.34,0,0,0,.35-.35V16.07H16A.34.34,0,0,0,15.66,16.42Z"/><path class="cls-1" d="M20.29,22l-.1-1.48h-2l.1,1.61v.11a1.39,1.39,0,0,1-.13.7,1.73,1.73,0,0,1-.65.79,1.29,1.29,0,0,1-.47.23,1.92,1.92,0,0,1-.55.09H2.07L3,9.22a1.66,1.66,0,0,1,.18-.66,1.89,1.89,0,0,1,.66-.74,1.69,1.69,0,0,1,1-.28H6.44V9.81a1.15,1.15,0,0,0,.38,2.24A1.12,1.12,0,0,0,8,10.91a1.1,1.1,0,0,0-.75-1.1V7.54h5.88V9.81a1.15,1.15,0,1,0,1.52,1.09,1.08,1.08,0,0,0-.76-1.09V7.54h1.87a1.62,1.62,0,0,1,.66.13,1.79,1.79,0,0,1,.78.61,2,2,0,0,1,.23.43h2a3.84,3.84,0,0,0-.32-1,3.58,3.58,0,0,0-1.37-1.54,3.71,3.71,0,0,0-2-.59H13.85V3.71A3.69,3.69,0,0,0,10.14,0,3.74,3.74,0,0,0,7.51,1.08,3.72,3.72,0,0,0,6.44,3.71V5.57H4.81a3.64,3.64,0,0,0-1.4.28A3.71,3.71,0,0,0,1.79,7.1a3.74,3.74,0,0,0-.71,2L0,26H16.56A4,4,0,0,0,18,25.7a3.65,3.65,0,0,0,1.66-1.37,4.13,4.13,0,0,0,.48-1,3.56,3.56,0,0,0,.14-.63,3.53,3.53,0,0,0,0-.65ZM7.21,3.71a3,3,0,0,1,.86-2.09A2.88,2.88,0,0,1,10.14.76a3,3,0,0,1,2.09.86,2.93,2.93,0,0,1,.86,2.09V5.57H7.21Z"/><path class="cls-1" d="M58.13,24.55H56.26a.59.59,0,0,0,.62.59.79.79,0,0,0,.63-.31l.51.26a1.34,1.34,0,0,1-1.13.56,1.34,1.34,0,0,1,0-2.68,1.23,1.23,0,0,1,1.29,1.3A2.3,2.3,0,0,1,58.13,24.55Zm-1.87-.44h1.2c0-.39-.25-.62-.6-.62S56.32,23.72,56.26,24.11Z"/><path class="cls-1" d="M58.37,23.82a1.8,1.8,0,0,1,3.13-1.23l-.23.24a1.4,1.4,0,0,0-1.09-.51,1.38,1.38,0,0,0-1.42,1.51,1.43,1.43,0,0,0,2.6.91l.25.23a1.82,1.82,0,0,1-3.24-1.15Z"/><path class="cls-1" d="M61.77,24.34a1.29,1.29,0,1,1,1.29,1.32A1.24,1.24,0,0,1,61.77,24.34Zm2.22,0a.92.92,0,0,0-.92-1,1,1,0,0,0,0,2A.92.92,0,0,0,64,24.34Z"/><path class="cls-1" d="M68.68,24V25.6h-.35V24.08a.69.69,0,0,0-.71-.76.7.7,0,0,0-.72.76V25.6h-.34V24.08a.7.7,0,0,0-.72-.76.69.69,0,0,0-.71.76V25.6h-.35V23.07h.33v.41a.86.86,0,0,1,.82-.46.9.9,0,0,1,.86.52.92.92,0,0,1,.88-.52A1,1,0,0,1,68.68,24Z"/><path class="cls-1" d="M73.13,24V25.6h-.34V24.08a.7.7,0,0,0-.72-.76.69.69,0,0,0-.71.76V25.6H71V24.08a.72.72,0,1,0-1.43,0V25.6h-.35V23.07h.34v.41A.87.87,0,0,1,70.4,23a.89.89,0,0,1,.85.52,1,1,0,0,1,1.88.47Z"/><path class="cls-1" d="M75.92,24.46h-2c0,.55.34.91.84.91a1,1,0,0,0,.82-.43l.26.16a1.24,1.24,0,0,1-1.08.56,1.33,1.33,0,0,1,0-2.64,1.17,1.17,0,0,1,1.2,1.28A1,1,0,0,0,75.92,24.46Zm-2-.24h1.66a.84.84,0,0,0-.83-.92C74.24,23.3,73.93,23.66,73.9,24.22Z"/><path class="cls-1" d="M77.66,23l0,.32c-.62,0-1,.31-1,.8v1.47h-.34V23.08h.33v.43A1.08,1.08,0,0,1,77.66,23Z"/><path class="cls-1" d="M77.56,24.34A1.24,1.24,0,0,1,78.86,23a1.27,1.27,0,0,1,.82.28l-.2.23a.9.9,0,0,0-.62-.21,1,1,0,0,0,0,2,1,1,0,0,0,.7-.28l.19.23a1.28,1.28,0,0,1-.91.34A1.21,1.21,0,0,1,77.56,24.34Z"/><path class="cls-1" d="M82.24,24.46h-2c0,.55.34.91.85.91a1,1,0,0,0,.81-.43l.27.16a1.25,1.25,0,0,1-1.08.56,1.33,1.33,0,0,1,0-2.64,1.17,1.17,0,0,1,1.19,1.28A.76.76,0,0,1,82.24,24.46Zm-2-.24h1.66c0-.56-.34-.92-.83-.92S80.26,23.66,80.23,24.22Z"/></g></g></svg>