<svg xmlns="http://www.w3.org/2000/svg" viewBox="0 0 71 26"><defs><style>.cls-1{fill:#2d3e8e;}.cls-2{fill:#dbfe01;}</style></defs><title>GoDeliver</title><g id="Capa_2" data-name="Capa 2"><g id="Capa_1-2" data-name="Capa 1"><circle class="cls-1" cx="22.08" cy="1.43" r="1.43"/><path class="cls-1" d="M44.32,14.27c0,.11,0,.23,0,.33a1.39,1.39,0,0,0,1.46,1.58,2.9,2.9,0,0,0,2-1l.88.55a3.83,3.83,0,0,1-2.94,1.38,2.48,2.48,0,0,1-2.7-2.65,3.77,3.77,0,0,1,3.67-4,2.43,2.43,0,0,1,2.65,2.6,4.71,4.71,0,0,1-.17,1.17Zm.15-.84h3.65c0-.13,0-.25,0-.37a1.4,1.4,0,0,0-1.46-1.59A2.4,2.4,0,0,0,44.47,13.43Z"/><path class="cls-1" d="M51,7.67h1.22L50.55,17H49.33Z"/><polygon class="cls-1" points="52.75 10.62 53.98 10.62 52.84 17.03 51.61 17.03 52.75 10.62"/><path class="cls-1" d="M52.94,8.59a.83.83,0,0,1,.84-.84.67.67,0,0,1,.7.7.82.82,0,0,1-.83.84A.67.67,0,0,1,52.94,8.59Z"/><path class="cls-1" d="M54.19,10.62h1.32l1.15,5,3-5H61L57.06,17H55.84Z"/><path class="cls-1" d="M61.24,14.27a1.88,1.88,0,0,0,0,.33,1.39,1.39,0,0,0,1.47,1.58,2.9,2.9,0,0,0,2-1l.88.55a3.85,3.85,0,0,1-2.94,1.38A2.48,2.48,0,0,1,60,14.5a3.77,3.77,0,0,1,3.67-4,2.44,2.44,0,0,1,2.65,2.6,4.71,4.71,0,0,1-.17,1.17Zm.15-.84H65c0-.13,0-.25,0-.37a1.4,1.4,0,0,0-1.45-1.59A2.39,2.39,0,0,0,61.39,13.43Z"/><path class="cls-1" d="M67.36,10.62h1.18l-.18,1A3.1,3.1,0,0,1,71,10.5l-.2,1.13a2.53,2.53,0,0,0-2.72,1.86L67.45,17H66.23Z"/><path class="cls-1" d="M42.81,11.64A5.11,5.11,0,0,1,37.65,17H34.39L36,8.09h3.19A3.35,3.35,0,0,1,42.81,11.64Zm-1.31.12a2.38,2.38,0,0,0-2.58-2.62H37l-1.19,6.77h1.88A3.92,3.92,0,0,0,41.5,11.76Z"/><path class="cls-1" d="M62.79,20.83h5.83a.94.94,0,0,0,0-1.87H62.79a.94.94,0,0,0,0,1.87"/><path class="cls-1" d="M56.36,20.83H58.7a.94.94,0,1,0,0-1.87H56.36a.94.94,0,0,0,0,1.87"/><path class="cls-1" d="M44.11,20.83h8.83a.94.94,0,1,0,0-1.87H44.11a.94.94,0,1,0,0,1.87"/><path class="cls-1" d="M63.75,24h1.3a.94.94,0,0,0,0-1.87h-1.3a.94.94,0,0,0,0,1.87"/><path class="cls-1" d="M52.79,24h2.34a.94.94,0,1,0,0-1.87H52.79a.94.94,0,0,0,0,1.87"/><path class="cls-2" d="M32.51,13.14a6,6,0,0,1-.43,3c-.09.21-.18.42-.29.62a44.2,44.2,0,0,1-6.91,8.9c-.44.47-1,.5-1.28.05a41.43,41.43,0,0,1-4.1-7,9.35,9.35,0,0,1-.89-3.07,6.94,6.94,0,0,1,2.58-5.78,7.21,7.21,0,0,1,7-1.81,5.66,5.66,0,0,1,4.31,4.86Zm-3,1.36A3.44,3.44,0,0,0,26,10.58a4.61,4.61,0,0,0-4.4,3.92,3.39,3.39,0,0,0,3.52,3.91A4.56,4.56,0,0,0,29.53,14.5Z"/><path class="cls-1" d="M18,14.39a7,7,0,0,1-7.2,6.19c-3.54,0-5.73-2.07-5.73-5.25a7.38,7.38,0,0,1,7.65-7.54,6.35,6.35,0,0,1,4.41,1.48L15,11a3.76,3.76,0,0,0-2.49-.76c-2.58,0-4.41,2.37-4.41,4.92a2.75,2.75,0,0,0,2.94,3,3.74,3.74,0,0,0,3.71-2.52H11.87l.43-2.44h5.86A10.2,10.2,0,0,1,18,14.39Z"/><path class="cls-1" d="M8.81,6.78H15l1.13-5.34a1.14,1.14,0,0,0-1-1.44H10A1.27,1.27,0,0,0,8.85,1.09L7.93,5.46A1,1,0,0,0,8.81,6.78Z"/><path class="cls-1" d="M20.11,7.27c-.44-.2-1.45-.69-2.4-1.06h0a.76.76,0,0,1-.18-.09L17.41,6a.34.34,0,0,1,0-.52,9.08,9.08,0,0,1,1.48-1c1.28-.71,1.61-1.52.8-1.4h0s-5.1.66-4.65,2.73c0,0-.46,1.08,2.08,1.93s2.43,1-1.78,3.86S24.32,9.16,20.11,7.27Z"/><path class="cls-1" d="M21.33,3.92a.77.77,0,0,0-.71.69A1.82,1.82,0,0,0,21.3,6c1.19,1.19,2.21,1.34,2.24,1.06s-1.95-1-1.76-2S21.64,3.9,21.33,3.92Z"/><path class="cls-1" d="M2.9,14.29H.41a.4.4,0,0,1-.4-.5l.09-.46a.64.64,0,0,1,.6-.49H3.19a.39.39,0,0,1,.39.49l-.09.46A.64.64,0,0,1,2.9,14.29Z"/><path class="cls-1" d="M6.9,12.2H4.52a.39.39,0,0,1-.4-.5l.09-.46a.63.63,0,0,1,.59-.49H7.19a.39.39,0,0,1,.39.49l-.09.46A.63.63,0,0,1,6.9,12.2Z"/><path class="cls-1" d="M3.1,12.2H2a.39.39,0,0,1-.4-.5l.09-.46a.64.64,0,0,1,.59-.49h1.1a.39.39,0,0,1,.39.49l-.09.46A.63.63,0,0,1,3.1,12.2Z"/><path class="cls-1" d="M4.1,16.37H1.6a.39.39,0,0,1-.39-.49l.09-.46a.63.63,0,0,1,.59-.49H4.38a.39.39,0,0,1,.4.49l-.09.46A.63.63,0,0,1,4.1,16.37Z"/></g></g></svg>