<svg xmlns="http://www.w3.org/2000/svg" viewBox="0 0 20.83 20.85"><defs><style>.cls-1{fill:#02dcff;}.cls-2{fill:#22274e;}</style></defs><title>ID</title><g id="Capa_2" data-name="Capa 2"><g id="Capa_1-2" data-name="Capa 1"><path class="cls-1" d="M2.64,6.89c1.48,7.46,3.86,9.27,5.3,10.27a4.28,4.28,0,0,0,2.17.68l.5,0a2.81,2.81,0,0,0,1.06-.3l.52-.27A11,11,0,0,0,16.77,9h0c0-.19,0-.39,0-.59V4.67a.39.39,0,0,0-.17-.32.41.41,0,0,0-.36,0A10.24,10.24,0,0,1,15,4.66a12.17,12.17,0,0,1-1.49.19h-.45a5.53,5.53,0,0,1-2.81-.77,1.07,1.07,0,0,0-.57-.16,1.18,1.18,0,0,0-.52.13,5.26,5.26,0,0,1-1.35.4,19.38,19.38,0,0,1-2.1.26,5.24,5.24,0,0,1-.55,0,5.79,5.79,0,0,1-.61,0S2.76,4.57,2.64,6.89Z"/><path class="cls-2" d="M1.41,9.2a3.75,3.75,0,0,0,1.11,2.67A3.67,3.67,0,0,0,5.18,13,3.77,3.77,0,0,0,9,9.2a3.81,3.81,0,0,0-1.1-2.67A3.76,3.76,0,0,0,5.18,5.42,3.67,3.67,0,0,0,2.52,6.53,3.74,3.74,0,0,0,1.41,9.2Z"/><path class="cls-2" d="M10.2,15.63a5.21,5.21,0,0,0-.56-.7A6,6,0,0,0,7,13.27,6.13,6.13,0,0,0,5.18,13a6.14,6.14,0,0,0-3.39,1A6.3,6.3,0,0,0,.7,15h0a6.55,6.55,0,0,0-.52.66A1,1,0,0,0,.44,17a8.35,8.35,0,0,0,4.74,1.48A8.24,8.24,0,0,0,9.93,17,1,1,0,0,0,10.2,15.63Z"/><path class="cls-2" d="M20.83,1.16a1,1,0,0,0-.3-.72,1.09,1.09,0,0,0-.69-.28,1,1,0,0,0-.5.14,7,7,0,0,1-3,1c-.21,0-.4,0-.6,0a7.4,7.4,0,0,1-3.72-1A1.55,1.55,0,0,0,10.52.18a8.1,8.1,0,0,1-3.74.94,6.23,6.23,0,0,1-.74,0A7.65,7.65,0,0,1,3.19.23h0A1.11,1.11,0,0,0,2.73.12a1,1,0,0,0-1,1V4.72a.6.6,0,0,0,1.19,0V1.43a8.9,8.9,0,0,0,3,.84,8.51,8.51,0,0,0,.86,0,9.17,9.17,0,0,0,4.29-1.08.39.39,0,0,1,.18,0,.36.36,0,0,1,.2.06,8.5,8.5,0,0,0,4.33,1.22l.7,0a8.4,8.4,0,0,0,3.16-.94V6.23c0,.21,0,.42,0,.63h0a14.18,14.18,0,0,1-5.7,10.64l-2.64,2L9.86,18.43a.59.59,0,0,0-.72.94l1.78,1.36a.6.6,0,0,0,.72,0l3-2.28A15.4,15.4,0,0,0,20.81,6.91h0c0-.23,0-.45,0-.68ZM2.64,1.29Z"/><path class="cls-2" d="M11,18.07a.39.39,0,0,0,.48,0l2.24-1.7A11.41,11.41,0,0,0,18.34,7.9h0c0-.2,0-.4,0-.61V3.44a.4.4,0,0,0-.17-.32.42.42,0,0,0-.36-.05,10.53,10.53,0,0,1-1.25.37,12.17,12.17,0,0,1-1.49.19l-.45,0a5.5,5.5,0,0,1-2.81-.8,1.07,1.07,0,0,0-.57-.16,1.25,1.25,0,0,0-.53.13,5,5,0,0,1-1.34.41,17,17,0,0,1-2.1.27,5.24,5.24,0,0,1-.55,0,3.71,3.71,0,0,1-1.92-.41.4.4,0,0,0-.61.33v.85a.4.4,0,0,0,.4.4A.39.39,0,0,0,5,4.29V4.06a5.7,5.7,0,0,0,1.74.26l.62,0A17.57,17.57,0,0,0,9.55,4a5.34,5.34,0,0,0,1.55-.49.47.47,0,0,1,.16,0,.3.3,0,0,1,.16,0,6.31,6.31,0,0,0,3.22.91l.52,0a12.51,12.51,0,0,0,1.58-.21A6.81,6.81,0,0,0,17.57,4v3.3c0,.19,0,.38,0,.57h0a10.59,10.59,0,0,1-4.27,7.88l-2,1.52-.06-.05a.4.4,0,0,0-.56.08.39.39,0,0,0,.08.55Z"/><path class="cls-2" d="M11.28,13a.93.93,0,0,0,.94-.93V9.89a1.79,1.79,0,1,0-1.87,0v2.16A.93.93,0,0,0,11.28,13Z"/></g></g></svg>