<svg xmlns="http://www.w3.org/2000/svg" viewBox="0 0 133 27.83"><defs><style>.cls-1{fill:#fff;}.cls-2{fill:#dbfe01;}</style></defs><title>LOGO</title><g id="Capa_2" data-name="Capa 2"><g id="Capa_1-2" data-name="Capa 1"><path class="cls-1" d="M41.42,9.19H31.34a.06.06,0,0,1-.07-.06V.89a.06.06,0,0,0-.06-.06H27.06A.06.06,0,0,0,27,.89V21.51a.06.06,0,0,0,.06.06h4.15a.06.06,0,0,0,.06-.06V13c0-.06.07-.06.07-.06H41.42a.06.06,0,0,1,.06.06v8.49c0,.06.07.06.07.06h4.14a.06.06,0,0,0,.07-.06V.89c0-.06-.07-.06-.07-.06H41.55a.06.06,0,0,0-.07.06V9.06C41.55,9.06,41.48,9.19,41.42,9.19Z"/><path class="cls-1" d="M79.77,4.53h6a.07.07,0,0,1,.07.07V21.44a.06.06,0,0,0,.06.07h4.15c.06,0,.06-.07.06-.07V4.66c0-.06.07-.06.07-.06h6c.06,0,.06-.07.06-.07V1A.06.06,0,0,0,96.18,1H79.77a.06.06,0,0,0-.06.06V4.53Z"/><path class="cls-1" d="M98.15,21.63h4a.06.06,0,0,0,.06-.06V6.51a.06.06,0,0,0-.06-.06h-4a.06.06,0,0,0-.06.06v15Z"/><path class="cls-2" d="M100.26,0a2.38,2.38,0,0,0-2.49,2.49,2.49,2.49,0,1,0,5,0A2.49,2.49,0,0,0,100.26,0Z"/><path class="cls-1" d="M128.15,12.32,126.94,12c-1.47-.32-2-.77-2-1.34s.76-1,2-1a7.63,7.63,0,0,1,3.63.95h.07l2-2.55V8a11,11,0,0,0-6-1.79c-3.64,0-6,2-6,5.11,0,2.68,2.17,3.63,4.41,4.14l1.21.32c1.66.45,2.36,1,2.36,1.47,0,.7-.77,1.15-2,1.21A7.86,7.86,0,0,1,122,17H122l-2,2.55v.06a10.77,10.77,0,0,0,6.64,2.17c3.83,0,6.38-2,6.38-4.85C132.94,13.85,130.19,12.83,128.15,12.32Z"/><path class="cls-1" d="M71.61,15.76,67.84,6.13a.06.06,0,0,0-.06-.07H63.25a.07.07,0,0,0-.07.07l6.32,14.8a.3.3,0,0,1,0,.32,3.93,3.93,0,0,1-1.34,2,4,4,0,0,1-2.43.64h-2.1a.06.06,0,0,0-.07.06v3.83a.07.07,0,0,0,.07.07h2.68a7,7,0,0,0,4.47-1.47A10.48,10.48,0,0,0,74,21.51L79.71,6c0-.06,0-.06-.06-.06H75.18c-.06,0-.06,0-.06.06l-3.2,9.64C71.67,15.83,71.61,15.83,71.61,15.76Z"/><path class="cls-1" d="M55.65,6.06c-4.4,0-7.34,3-7.59,7.34a8,8,0,0,0,14.42,5.11v-.07l-3.32-1.53H59.1a4.09,4.09,0,0,1-3.19,1.47,2.94,2.94,0,0,1-3.2-2.68.15.15,0,0,1,.13-.13H63.18c.07,0,.07,0,.07-.06a17.93,17.93,0,0,0,.12-1.79A7.32,7.32,0,0,0,55.65,6.06Zm-3.13,6.45c.32-2,1.47-3,3.13-3s2.81,1,3.19,3Z"/><path class="cls-1" d="M113.09,18.12c-2.36,0-3.89-1.65-3.89-4.14s1.46-4.15,3.82-4.15a3.79,3.79,0,0,1,2.68,1l.13.13h.07l2.36-2.81V8l-.13-.13a8.41,8.41,0,0,0-5.3-1.78c-4.85,0-8.17,3.19-8.17,7.85s3.26,8,8.11,8a8.14,8.14,0,0,0,5.87-2.17v-.12L116.09,17H116A4.3,4.3,0,0,1,113.09,18.12Z"/><path class="cls-2" d="M0,1.6V5.3A.67.67,0,0,0,.7,6H5.17V1.53a.67.67,0,0,0-.7-.7H.77A.74.74,0,0,0,0,1.6Z"/><path class="cls-2" d="M20.74,10.47V6.76a.67.67,0,0,0-.7-.7H15.76a.13.13,0,0,1-.12-.12V1.6a.68.68,0,0,0-.71-.71h-3.7a.67.67,0,0,0-.7.71V5.94a.13.13,0,0,1-.13.12h-5v5.17h5a.14.14,0,0,1,.13.13v2.43a7.78,7.78,0,0,0,7.79,7.78h1.85a.67.67,0,0,0,.7-.7v-3.7a.67.67,0,0,0-.7-.7H18.32a2.53,2.53,0,0,1-2.56-2.56V11.42a.14.14,0,0,1,.13-.12h4.34A1,1,0,0,0,20.74,10.47Z"/><path class="cls-2" d="M.77,16.4h3.7a.67.67,0,0,0,.7-.7V11.23H.7a.67.67,0,0,0-.7.7v3.71A.77.77,0,0,0,.77,16.4Z"/></g></g></svg>