<svg xmlns="http://www.w3.org/2000/svg" viewBox="0 0 20.75 20"><defs><style>.cls-1{fill:#02dcff;}.cls-2{fill:#fff;}</style></defs><title>MI WALLET</title><g id="Capa_2" data-name="Capa 2"><g id="Capa_1-2" data-name="Capa 1"><path class="cls-1" d="M14.86,1.24a2.2,2.2,0,0,0-2.94-1L3.39,4.37a1.61,1.61,0,0,0-.31.19H16.47Z"/><path class="cls-2" d="M13.2,12.63A2.66,2.66,0,0,1,15.86,10H20.4V8.22a2.46,2.46,0,0,0-2.46-2.46H2.46A2.46,2.46,0,0,0,0,8.22v9.32A2.46,2.46,0,0,0,2.46,20H17.94a2.46,2.46,0,0,0,2.46-2.46V15.29H15.86A2.67,2.67,0,0,1,13.2,12.63Z"/><path class="cls-1" d="M15.86,11.17a1.46,1.46,0,0,0,0,2.92h4.89V11.17Zm0,2.2a.74.74,0,1,1,.74-.74A.74.74,0,0,1,15.87,13.37Z"/></g></g></svg>