<svg xmlns="http://www.w3.org/2000/svg" viewBox="0 0 20.73 20.89"><defs><style>.cls-1{fill:#02dcff;}.cls-2{fill:#22274e;}</style></defs><title>TICS</title><g id="Capa_2" data-name="Capa 2"><g id="Capa_1-2" data-name="Capa 1"><path class="cls-1" d="M17.16,9.67c0,4.63-3,7.87-7.6,7.87S0,14.23,0,9.6,2.26,1.86,6.76,1.54,17.16,4.33,17.16,9.67Z"/><path class="cls-2" d="M17.84,3a10.12,10.12,0,0,0-7.25-3A10.4,10.4,0,0,0,.38,10.45a10.77,10.77,0,0,0,3,7.4,10,10,0,0,0,7.17,3A10.4,10.4,0,0,0,20.73,10.45,10.09,10.09,0,0,0,17.84,3ZM10.59,18.56A7.77,7.77,0,0,1,5,16.14a8.37,8.37,0,0,1-2.34-5.77A8.07,8.07,0,0,1,5,4.6a7.71,7.71,0,0,1,11.22,0,8.37,8.37,0,0,1,2.34,5.77,8,8,0,0,1-2.34,5.77A7.35,7.35,0,0,1,10.59,18.56Z"/><path class="cls-2" d="M8.17,6.08H6.61a.34.34,0,0,0-.31.31V8a.33.33,0,0,0,.31.31H8.49V6.39A.34.34,0,0,0,8.17,6.08Z"/><path class="cls-2" d="M10.67,10.53v1a3.21,3.21,0,0,0,3.12,3.27h.78a.33.33,0,0,0,.31-.31V12.94a.34.34,0,0,0-.31-.31h-.78a1.06,1.06,0,0,1-1.09-1.09v-1s0-.08.07-.08h1.8a.34.34,0,0,0,.31-.31V8.58a.34.34,0,0,0-.31-.32h-1.8a.07.07,0,0,1-.07-.07V6.32A.34.34,0,0,0,12.38,6H10.82a.34.34,0,0,0-.31.32V8.19a.07.07,0,0,1-.07.07H8.33v2.19l2.34.08C10.59,10.45,10.67,10.45,10.67,10.53Z"/><path class="cls-2" d="M6.69,12.55H8.25a.33.33,0,0,0,.31-.31V10.37H6.69a.34.34,0,0,0-.31.31v1.56A.33.33,0,0,0,6.69,12.55Z"/></g></g></svg>