<svg xmlns="http://www.w3.org/2000/svg" viewBox="0 0 26.25 25"><defs><style>.cls-1{fill:#02dcff;}.cls-2{fill:#fff;}</style></defs><title>TRANSACCIONES</title><g id="Capa_2" data-name="Capa 2"><g id="Capa_1-2" data-name="Capa 1"><path class="cls-1" d="M14.68,25h-10a2.57,2.57,0,0,1-2.75-2.72c0-.37,0-.75,0-1.16H14.12c0,1.37-.08,2.74,1,3.88Z"/><path class="cls-2" d="M16.1,15.8c-1.77,0-3.55,0-5.32,0-.31,0-.57.1-.58.46s.25.48.59.48h5.28c.32,0,.57-.1.58-.45S16.42,15.8,16.1,15.8Z"/><path class="cls-2" d="M16.11,12.14H13.47v0H10.83c-.31,0-.61.07-.63.46s.29.52.62.52H16.1c.31,0,.55-.12.55-.48S16.43,12.14,16.11,12.14Z"/><path class="cls-1" d="M7.9,13.18A.58.58,0,0,0,8,12a.57.57,0,0,0-.63.52A.57.57,0,0,0,7.9,13.18Z"/><path class="cls-1" d="M7.93,8.37a.53.53,0,0,0-.54.57A.55.55,0,0,0,8,9.5.57.57,0,0,0,8.53,9,.58.58,0,0,0,7.93,8.37Z"/><path class="cls-1" d="M7.94,15.7a.56.56,0,0,0-.55.61.57.57,0,0,0,1.13,0A.57.57,0,0,0,7.94,15.7Z"/><path class="cls-2" d="M21.68.19a6,6,0,0,0-7,3.38A.61.61,0,0,1,14,4C10.76,4,7.5,4,4.24,4c-.63,0-.74.11-.74.74,0,2.79,0,5.58,0,8.37,0,1.86,0,3.73,0,5.59v.52H3c-.81,0-1.62,0-2.43,0a.52.52,0,0,0-.59.59V21.2A3.54,3.54,0,0,0,3.8,25H16.4a3.25,3.25,0,0,0,3.49-3.49V12.22c.63-.1,1.17-.15,1.69-.27A6,6,0,0,0,21.68.19Zm-8,23.86H3.7A2.57,2.57,0,0,1,1,21.34c0-.38,0-.76,0-1.16H13.13c-.05,1.37-.08,2.73,1,3.87Zm5.25-2.46a2.3,2.3,0,0,1-2.26,2.46,2.57,2.57,0,0,1-2.6-2.41c0-.58,0-1.17,0-1.76s-.15-.67-.68-.67c-2.79,0-5.58,0-8.37,0H4.45V5h9.77a6.39,6.39,0,0,0,.39,3.48l-.43,0H10.83c-.34,0-.64.08-.63.49s.3.46.63.46c1.26,0,2.52,0,3.79,0a.86.86,0,0,1,.8.38,6,6,0,0,0,3.15,2.14.43.43,0,0,1,.38.51C18.94,15.48,19,18.53,18.94,21.59Zm.34-16.73c.06.46.4.73,1,.78A1.84,1.84,0,0,1,21.92,8a1.73,1.73,0,0,1-1,1.13.4.4,0,0,0-.31.45c0,.32-.12.57-.47.56s-.49-.24-.46-.56a.45.45,0,0,0-.31-.5,1.76,1.76,0,0,1-1-1.49c0-.32.08-.57.43-.6s.46.17.51.48c.09.55.38.83.83.86a.89.89,0,0,0,1-.77.9.9,0,0,0-.73-1c-.19,0-.38,0-.57-.08a1.83,1.83,0,0,1-.45-3.41c.24-.12.37-.24.34-.52s.13-.56.47-.56a.44.44,0,0,1,.46.53c0,.28.1.4.35.51A1.89,1.89,0,0,1,22,4.8c-.1.09-.24.33-.43.37s-.49-.16-.54-.48a.89.89,0,1,0-1.78.17Z"/></g></g></svg>